<svg xmlns="http://www.w3.org/2000/svg" width="87" height="74" viewBox="0 0 87 74">
  <metadata><?xpacket begin="﻿" id="W5M0MpCehiHzreSzNTczkc9d"?>
<x:xmpmeta xmlns:x="adobe:ns:meta/" x:xmptk="Adobe XMP Core 5.6-c142 79.160924, 2017/07/13-01:06:39        ">
   <rdf:RDF xmlns:rdf="http://www.w3.org/1999/02/22-rdf-syntax-ns#">
      <rdf:Description rdf:about=""/>
   </rdf:RDF>
</x:xmpmeta>
                                                                                                    
                                                                                                    
                                                                                                    
                                                                                                    
                                                                                                    
                                                                                                    
                                                                                                    
                                                                                                    
                                                                                                    
                                                                                                    
                                                                                                    
                                                                                                    
                                                                                                    
                                                                                                    
                                                                                                    
                                                                                                    
                                                                                                    
                                                                                                    
                                                                                                    
                                                                                                    
                           
<?xpacket end="w"?></metadata>
<defs>
    <style>
      .cls-1 {
        fill: #fe0000;
        fill-rule: evenodd;
      }
    </style>
  </defs>
  <path class="cls-1" d="M1266.22,1619.27a24.121,24.121,0,0,0-34.32-.2l-2.35,2.36-2.36-2.36a24.134,24.134,0,0,0-34.12,34.14l30.15,30.17a8.933,8.933,0,0,0,12.64,0l29.96-29.97A24.37,24.37,0,0,0,1266.22,1619.27Zm-3.55,30.98-29.97,29.97a4.46,4.46,0,0,1-6.32,0l-30.15-30.17a19.665,19.665,0,1,1,27.8-27.82l2.36,2.36-3.61,3.61a2.234,2.234,0,1,0,3.16,3.16l9.12-9.13a19.654,19.654,0,0,1,27.96.16A19.9,19.9,0,0,1,1262.67,1650.25Zm2.56-15.12a16.313,16.313,0,0,0-11.88-14.71,2.232,2.232,0,0,0-1.2,4.3,11.86,11.86,0,0,1,8.62,10.68,2.241,2.241,0,0,0,2.23,2.1,0.66,0.66,0,0,0,.14-0.01A2.221,2.221,0,0,0,1265.23,1635.13Z" transform="translate(-1186 -1612)"/>
</svg>
