<svg xmlns="http://www.w3.org/2000/svg" width="129" height="61" viewBox="0 0 129 61">
  <metadata><?xpacket begin="﻿" id="W5M0MpCehiHzreSzNTczkc9d"?>
<x:xmpmeta xmlns:x="adobe:ns:meta/" x:xmptk="Adobe XMP Core 5.6-c142 79.160924, 2017/07/13-01:06:39        ">
   <rdf:RDF xmlns:rdf="http://www.w3.org/1999/02/22-rdf-syntax-ns#">
      <rdf:Description rdf:about=""/>
   </rdf:RDF>
</x:xmpmeta>
                                                                                                    
                                                                                                    
                                                                                                    
                                                                                                    
                                                                                                    
                                                                                                    
                                                                                                    
                                                                                                    
                                                                                                    
                                                                                                    
                                                                                                    
                                                                                                    
                                                                                                    
                                                                                                    
                                                                                                    
                                                                                                    
                                                                                                    
                                                                                                    
                                                                                                    
                                                                                                    
                           
<?xpacket end="w"?></metadata>
<defs>
    <style>
      .cls-1 {
        fill: #fe0000;
        fill-rule: evenodd;
      }
    </style>
  </defs>
  <path class="cls-1" d="M277.3,1623a13.651,13.651,0,0,0-11.472,21.12l-14.8,14.76a13.668,13.668,0,0,0-15.174.16l-14.95-14.92a13.7,13.7,0,1,0-22.946,0l-14.8,14.76a13.7,13.7,0,1,0,4,4l14.8-14.77a13.676,13.676,0,0,0,14.939,0l15.033,15a13.7,13.7,0,1,0,23.1-.23l14.8-14.77A13.673,13.673,0,1,0,277.3,1623ZM175.7,1678.35a8.02,8.02,0,1,1,8.035-8.02A8.039,8.039,0,0,1,175.7,1678.35Zm33.74-33.67a8.015,8.015,0,1,1,8.035-8.01A8.03,8.03,0,0,1,209.437,1644.68Zm34.126,33.67a8.02,8.02,0,1,1,8.036-8.02A8.038,8.038,0,0,1,243.563,1678.35Zm33.74-33.67a8.015,8.015,0,1,1,8.035-8.01A8.03,8.03,0,0,1,277.3,1644.68Zm-70.764,13.02a2.842,2.842,0,0,0-4,0l-5.758,5.75a2.826,2.826,0,0,0,4,3.99l5.759-5.74A2.828,2.828,0,0,0,206.539,1657.7Zm49.682-18.04a2.823,2.823,0,0,0-4,0l-5.758,5.74a2.83,2.83,0,0,0,4,4l5.758-5.75A2.815,2.815,0,0,0,256.221,1639.66Z" transform="translate(-162 -1623)"/>
</svg>
