<svg xmlns="http://www.w3.org/2000/svg" viewBox="0 0 77.999 67.001">
  <defs>
    <style>
      .cls-1 {
        fill: #fe0000;
      }
    </style>
  </defs>
  <path id="case-study" class="cls-1" d="M190.1,7616a4.106,4.106,0,0,1-4.1-4.105v-49.2a4.107,4.107,0,0,1,4.1-4.105h6.187V7553.1a4.107,4.107,0,0,1,4.1-4.105h19.339a5.732,5.732,0,0,1,3.746,1.4l5.4,4.664a2.466,2.466,0,0,0,1.607.6H259.9a4.105,4.105,0,0,1,4.1,4.1V7602.3a4.107,4.107,0,0,1-4.1,4.105h-6.189v5.486a4.1,4.1,0,0,1-4.1,4.105Zm-.82-4.105a.822.822,0,0,0,.82.822h59.516a.822.822,0,0,0,.82-.822v-33.755H189.279Zm10.287-58.79v5.488h9.872a5.736,5.736,0,0,1,3.746,1.4l5.4,4.664a2.447,2.447,0,0,0,1.606.6h29.425a4.106,4.106,0,0,1,4.1,4.105v33.77H259.9a.822.822,0,0,0,.82-.82v-42.542a.823.823,0,0,0-.82-.822H230.476a5.739,5.739,0,0,1-3.746-1.394l-5.4-4.666a2.461,2.461,0,0,0-1.606-.6H200.386A.82.82,0,0,0,199.566,7553.1Zm-10.287,9.593v12.156h61.156v-5.5a.821.821,0,0,0-.82-.822H220.189a5.731,5.731,0,0,1-3.748-1.4l-5.4-4.664a2.452,2.452,0,0,0-1.606-.6H190.1A.821.821,0,0,0,189.279,7562.7Zm44.821,32.2a1.64,1.64,0,1,1,0-3.28h9.821a1.64,1.64,0,1,1,0,3.28Zm0-7.879a1.64,1.64,0,1,1,0-3.28h9.821a1.64,1.64,0,1,1,0,3.28Z" transform="translate(-186.001 -7548.998)"/>
</svg>
