<svg xmlns="http://www.w3.org/2000/svg" width="102" height="90" viewBox="0 0 102 90">
  <metadata><?xpacket begin="﻿" id="W5M0MpCehiHzreSzNTczkc9d"?>
<x:xmpmeta xmlns:x="adobe:ns:meta/" x:xmptk="Adobe XMP Core 5.6-c142 79.160924, 2017/07/13-01:06:39        ">
   <rdf:RDF xmlns:rdf="http://www.w3.org/1999/02/22-rdf-syntax-ns#">
      <rdf:Description rdf:about=""/>
   </rdf:RDF>
</x:xmpmeta>
                                                                                                    
                                                                                                    
                                                                                                    
                                                                                                    
                                                                                                    
                                                                                                    
                                                                                                    
                                                                                                    
                                                                                                    
                                                                                                    
                                                                                                    
                                                                                                    
                                                                                                    
                                                                                                    
                                                                                                    
                                                                                                    
                                                                                                    
                                                                                                    
                                                                                                    
                                                                                                    
                           
<?xpacket end="w"?></metadata>
<defs>
    <style>
      .cls-1 {
        fill: #fe0000;
        fill-rule: evenodd;
      }
    </style>
  </defs>
  <path class="cls-1" d="M1280.59,1451.16h-97.18a2.42,2.42,0,0,0,0,4.84h97.18A2.42,2.42,0,0,0,1280.59,1451.16Zm-6.28-73.73h-16.93a2.4,2.4,0,0,0-2.4,2.42v16.46h-12.11v-27.89a2.413,2.413,0,0,0-2.41-2.42h-16.92a2.413,2.413,0,0,0-2.41,2.42v45.82h-12.11v-20.58a2.422,2.422,0,0,0-2.41-2.43h-16.92a2.422,2.422,0,0,0-2.41,2.43v46.35a2.413,2.413,0,0,0,2.41,2.42h84.62a2.42,2.42,0,0,0,2.41-2.42v-60.16A2.413,2.413,0,0,0,1274.31,1377.43Zm-70.11,60.16h-12.1v-41.51h12.1v41.51Zm16.93,0h-12.11v-18.51h12.11v18.51Zm16.92-38.86v38.86h-12.1v-66.75h12.1v27.89Zm16.93,38.86h-12.11v-36.43h12.11v36.43Zm16.92,0h-12.11v-55.32h12.11v55.32h0Z" transform="translate(-1181 -1366)"/>
</svg>
