<svg xmlns="http://www.w3.org/2000/svg" width="98" height="104" viewBox="0 0 98 104">
  <metadata><?xpacket begin="﻿" id="W5M0MpCehiHzreSzNTczkc9d"?>
<x:xmpmeta xmlns:x="adobe:ns:meta/" x:xmptk="Adobe XMP Core 5.6-c142 79.160924, 2017/07/13-01:06:39        ">
   <rdf:RDF xmlns:rdf="http://www.w3.org/1999/02/22-rdf-syntax-ns#">
      <rdf:Description rdf:about=""/>
   </rdf:RDF>
</x:xmpmeta>
                                                                                                    
                                                                                                    
                                                                                                    
                                                                                                    
                                                                                                    
                                                                                                    
                                                                                                    
                                                                                                    
                                                                                                    
                                                                                                    
                                                                                                    
                                                                                                    
                                                                                                    
                                                                                                    
                                                                                                    
                                                                                                    
                                                                                                    
                                                                                                    
                                                                                                    
                                                                                                    
                           
<?xpacket end="w"?></metadata>
<defs>
    <style>
      .cls-1 {
        fill: #fe0000;
        fill-rule: evenodd;
      }
    </style>
  </defs>
  <path id="Forma_1" data-name="Forma 1" class="cls-1" d="M951.678,1433.46a6.716,6.716,0,0,0-8.1-2.09l-12.991,5.82a21.248,21.248,0,0,1-10.443,1.79,7.2,7.2,0,0,0,.93-1.47,7.325,7.325,0,0,0-4.017-10.01l-15.489-5.89a18.073,18.073,0,0,0-13.164.12l-15.354,6.17-1.066-3.97a2.036,2.036,0,0,0-2.494-1.43l-12.983,3.47a2.03,2.03,0,1,0,1.054,3.92l11.016-2.94,6.748,25.11L864.31,1455a2.035,2.035,0,0,0,.526,4,1.932,1.932,0,0,0,.528-0.07l12.983-3.47a2.037,2.037,0,0,0,1.441-2.49l-5.675-21.12,15.814-6.35a14.006,14.006,0,0,1,10.192-.09l15.49,5.89a3.269,3.269,0,0,1-2.091,6.19l-12.529-3.67a2.033,2.033,0,1,0-1.147,3.9l15.016,4.4a25.334,25.334,0,0,0,17.4-1.22l12.991-5.83a2.624,2.624,0,0,1,3.16.82,2.589,2.589,0,0,1-.847,3.83l-7.371,4a2.027,2.027,0,0,0,.974,3.81,2.111,2.111,0,0,0,.97-0.24l7.37-4A6.65,6.65,0,0,0,951.678,1433.46Zm-15.117,13.88a2.023,2.023,0,1,0,.6,1.43A2.05,2.05,0,0,0,936.561,1447.34Zm-5.909,3.85a2.039,2.039,0,0,0-2.762-.81l-2,1.08a28.993,28.993,0,0,1-22.361,2.16l-18.159-5.69a2.034,2.034,0,1,0-1.221,3.88l18.159,5.69a33.118,33.118,0,0,0,25.526-2.47l2-1.08A2.035,2.035,0,0,0,930.652,1451.19Zm-62.4-5.41a2.023,2.023,0,1,0,.6,1.44A2.05,2.05,0,0,0,868.251,1445.78Zm45.4-90.78a32.905,32.905,0,1,0,32.992,32.9A32.984,32.984,0,0,0,913.654,1355Zm0,61.75a28.845,28.845,0,1,1,28.919-28.85A28.916,28.916,0,0,1,913.654,1416.75Zm7.725-28.78a8.928,8.928,0,0,0-4.059-15.7v-1.89a2.037,2.037,0,0,0-4.073,0v1.74h-1.426v-1.74a2.037,2.037,0,0,0-4.073,0v1.74H905a2.032,2.032,0,0,0-.705,3.94v23.82a2.027,2.027,0,0,0,.705,3.93h2.75v1.74a2.037,2.037,0,0,0,4.073,0v-1.74h1.426v1.74a2.037,2.037,0,0,0,4.073,0v-1.89A8.92,8.92,0,0,0,921.379,1387.97Zm-5.681,11.78h-7.332V1390H915.7A4.875,4.875,0,1,1,915.7,1399.75Zm0-13.82h-7.332v-9.74H915.7A4.87,4.87,0,1,1,915.7,1385.93Zm16.684-16.64a26.453,26.453,0,0,0-42.039,31.2,2.036,2.036,0,0,0,3.586-1.93,22.426,22.426,0,1,1,9.11,9.09,2.03,2.03,0,1,0-1.932,3.57,26.681,26.681,0,0,0,12.6,3.15,25.9,25.9,0,0,0,3.626-.25A26.4,26.4,0,0,0,932.382,1369.29Zm-34.566,34.47a2.037,2.037,0,0,0-2.88.01l-0.016.01a2.036,2.036,0,0,0,2.889,2.87l0.016-.02A2.024,2.024,0,0,0,897.816,1403.76Z" transform="translate(-855 -1355)"/>
</svg>
