<svg xmlns="http://www.w3.org/2000/svg" width="101" height="81" viewBox="0 0 101 81">
  <metadata><?xpacket begin="﻿" id="W5M0MpCehiHzreSzNTczkc9d"?>
<x:xmpmeta xmlns:x="adobe:ns:meta/" x:xmptk="Adobe XMP Core 5.6-c142 79.160924, 2017/07/13-01:06:39        ">
   <rdf:RDF xmlns:rdf="http://www.w3.org/1999/02/22-rdf-syntax-ns#">
      <rdf:Description rdf:about=""/>
   </rdf:RDF>
</x:xmpmeta>
                                                                                                    
                                                                                                    
                                                                                                    
                                                                                                    
                                                                                                    
                                                                                                    
                                                                                                    
                                                                                                    
                                                                                                    
                                                                                                    
                                                                                                    
                                                                                                    
                                                                                                    
                                                                                                    
                                                                                                    
                                                                                                    
                                                                                                    
                                                                                                    
                                                                                                    
                                                                                                    
                           
<?xpacket end="w"?></metadata>
<defs>
    <style>
      .cls-1 {
        fill: #fe0000;
        fill-rule: evenodd;
      }
    </style>
  </defs>
  <path class="cls-1" d="M922.44,1612H854.687a5.693,5.693,0,0,0-5.687,5.69v40.66a5.7,5.7,0,0,0,5.687,5.69h4.394v15.13a2.389,2.389,0,0,0,1.47,2.21,2.422,2.422,0,0,0,.912.18,2.367,2.367,0,0,0,1.685-.7l16.817-16.82h3.374a2.385,2.385,0,0,0,0-4.77s-4.476,0-4.523.01a2.355,2.355,0,0,0-1.523.69l-13.447,13.45s0-11.92-.012-11.98a2.379,2.379,0,0,0-2.372-2.17h-6.775a0.921,0.921,0,0,1-.922-0.92v-40.66a0.929,0.929,0,0,1,.922-0.93H922.44a0.928,0.928,0,0,1,.922.93v15.6a2.383,2.383,0,0,0,4.765,0v-15.6A5.693,5.693,0,0,0,922.44,1612Zm21.873,29.15H896.887a5.693,5.693,0,0,0-5.687,5.69v27.74a5.7,5.7,0,0,0,5.687,5.69h29.691l12.03,12.03a2.365,2.365,0,0,0,1.685.7,2.417,2.417,0,0,0,.911-0.18,2.39,2.39,0,0,0,1.471-2.21v-10.34h1.637a5.7,5.7,0,0,0,5.688-5.69v-27.74A5.693,5.693,0,0,0,944.313,1641.15Zm0.922,33.43a0.921,0.921,0,0,1-.922.92h-4.02a2.381,2.381,0,0,0-2.373,2.2c-0.006.05-.01,7.16-0.01,7.16l-8.651-8.65-0.028-.03c-0.033-.03-0.066-0.06-0.1-0.09a2.357,2.357,0,0,0-1.569-.59H896.887a0.92,0.92,0,0,1-.922-0.92v-27.74a0.921,0.921,0,0,1,.922-0.92h47.426a0.921,0.921,0,0,1,.922.92v27.74ZM920.6,1658.33a2.38,2.38,0,1,0,2.383,2.38A2.378,2.378,0,0,0,920.6,1658.33Zm-10.355-30.57H866.882a2.38,2.38,0,1,0,0,4.76h43.363A2.38,2.38,0,1,0,910.245,1627.76Zm-26.906,15.75H866.882a2.385,2.385,0,0,0,0,4.77h16.457A2.385,2.385,0,0,0,883.339,1643.51Zm26.189,14.82a2.38,2.38,0,1,0,2.383,2.38A2.378,2.378,0,0,0,909.528,1658.33Zm22.142,0a2.38,2.38,0,1,0,2.382,2.38A2.379,2.379,0,0,0,931.67,1658.33Z" transform="translate(-849 -1612)"/>
</svg>
