<svg xmlns="http://www.w3.org/2000/svg" viewBox="0 0 82 75.001">
  <defs>
    <style>
      .cls-1 {
        fill: #fe0000;
      }
    </style>
  </defs>
  <path id="guide-help" class="cls-1" d="M850.808,7620.875l-14.289-5.282A44.557,44.557,0,0,1,817,7620.048a43.081,43.081,0,0,1-28.925-10.779,34.557,34.557,0,0,1,0-52.49,44.191,44.191,0,0,1,57.849,0,34.408,34.408,0,0,1,3.686,48.69l3.779,13.053a1.926,1.926,0,0,1-.558,1.962,1.978,1.978,0,0,1-1.335.515A1.947,1.947,0,0,1,850.808,7620.875Zm-70.872-37.851c0,18.275,16.628,33.14,37.065,33.14a40.475,40.475,0,0,0,18.485-4.413,2.006,2.006,0,0,1,1.6-.1l11.445,4.231-3-10.353a1.918,1.918,0,0,1,.417-1.821,30.684,30.684,0,0,0,8.111-20.687c0-18.273-16.626-33.14-37.063-33.14S779.935,7564.751,779.935,7583.024Zm28.544,23.485c-1.792-2.15-2.377-5.126-1.786-8.53,0-.008,0-.016,0-.021.2-1.071,1.7-8.6,1.8-9.085,1.077-5.282-.057-6.076-.541-6.415a3.143,3.143,0,0,1-1.039-1.06,2.381,2.381,0,0,1,.092-2.417c1.364-2.469,5.818-4.977,10.076-4.64a9.347,9.347,0,0,1,6.849,3.458c1.7,2.22,2.24,5.185,1.559,8.574a.1.1,0,0,0,0,.021c-.669,3.137-1.283,5.948-1.612,7.459-.145.664-.239,1.09-.262,1.205-.93,5.292.222,6.056.713,6.38a3.123,3.123,0,0,1,1.065,1.033,2.371,2.371,0,0,1-.027,2.417c-1.245,2.4-5.34,4.916-9.435,4.916h-.137A9.793,9.793,0,0,1,808.479,7606.509Zm4.3-27.454a7.875,7.875,0,0,0-1.618,1.012c1.394,1.425,2.339,3.933,1.19,9.575a.054.054,0,0,1,0,.019c-.063.3-1.565,7.834-1.779,8.984a6.666,6.666,0,0,0,.983,5.439,5.4,5.4,0,0,0,4.072,1.825,8.15,8.15,0,0,0,3.965-.943,7.66,7.66,0,0,0,1.589-1.056c-1.431-1.387-2.442-3.867-1.442-9.538a.082.082,0,0,1,0-.021c.015-.084.061-.292.285-1.316.329-1.505.941-4.307,1.6-7.429a6.661,6.661,0,0,0-.84-5.462,5.4,5.4,0,0,0-4.02-1.93c-.146-.012-.3-.017-.449-.017A8.467,8.467,0,0,0,812.783,7579.055Zm-1.467-9.444a6.345,6.345,0,0,1-1.637-5.049c.482-4.045,4.839-7.331,9.714-7.331a9.069,9.069,0,0,1,6.794,2.773,6.28,6.28,0,0,1,1.637,5.005c-.478,4.106-4.772,7.325-9.773,7.325A9,9,0,0,1,811.316,7569.611Zm2.272-4.6a2.471,2.471,0,0,0,.666,2.016,5.14,5.14,0,0,0,3.795,1.425c2.934,0,5.621-1.782,5.866-3.888a2.476,2.476,0,0,0-.668-1.974,5.211,5.211,0,0,0-3.854-1.473C816.547,7561.115,813.835,7562.936,813.588,7565.009Z" transform="translate(-775.999 -7545.998)"/>
</svg>
