<svg xmlns="http://www.w3.org/2000/svg" viewBox="0 0 89 71">
  <defs>
    <style>
      .cls-1 {
        fill: #fe0000;
      }
    </style>
  </defs>
  <path id="join" class="cls-1" d="M848.961,7290.386l-10.6-10.547H812.2a5,5,0,0,1-5.012-4.986v-24.314a5,5,0,0,1,5.012-4.986h41.791a5,5,0,0,1,5.012,4.986v24.314a5,5,0,0,1-5.012,4.986h-1.442v9.07a2.092,2.092,0,0,1-1.3,1.93,2.1,2.1,0,0,1-2.287-.454Zm-37.577-39.848v24.314a.811.811,0,0,0,.812.807h27.035a2.1,2.1,0,0,1,1.381.52c.027.024.055.047.086.077a.142.142,0,0,0,.024.024l7.623,7.586s0-6.232.009-6.278a2.093,2.093,0,0,1,2.091-1.927h3.541a.812.812,0,0,0,.812-.809v-24.314a.811.811,0,0,0-.812-.809H812.2A.811.811,0,0,0,811.385,7250.539Zm-31.205,30.272a2.089,2.089,0,0,1-1.3-1.931v-13.268h-3.872a5,5,0,0,1-5.012-4.986v-35.641a5,5,0,0,1,5.012-4.986h59.7a5,5,0,0,1,5.012,4.986v13.674a2.1,2.1,0,0,1-4.2,0v-13.674a.811.811,0,0,0-.812-.809h-59.7a.811.811,0,0,0-.812.809v35.641a.812.812,0,0,0,.812.809h5.969a2.1,2.1,0,0,1,2.091,1.9c.005.055.009,10.5.009,10.5l11.85-11.791a2.1,2.1,0,0,1,1.343-.6c.04-.005,3.985-.007,3.985-.007a2.089,2.089,0,1,1,0,4.177h-2.973l-14.82,14.747a2.107,2.107,0,0,1-2.287.452Zm60.57-18.111a2.1,2.1,0,1,1,2.1,2.091A2.095,2.095,0,0,1,840.749,7262.7Zm-9.758,0a2.1,2.1,0,1,1,2.1,2.091A2.093,2.093,0,0,1,830.991,7262.7Zm-9.751,0a2.1,2.1,0,1,1,2.1,2.091A2.095,2.095,0,0,1,821.24,7262.7Zm-35.489-10.9a2.091,2.091,0,1,1,0-4.181H800.27a2.091,2.091,0,0,1,0,4.181Zm0-13.812a2.09,2.09,0,1,1,0-4.179h38.228a2.09,2.09,0,1,1,0,4.179Z" transform="translate(-770 -7219.999)"/>
</svg>
