<svg xmlns="http://www.w3.org/2000/svg" viewBox="0 0 83 94.027">
  <defs>
    <style>
      .cls-1 {
        fill: #fe0000;
      }
    </style>
  </defs>
  <path id="managing" class="cls-1" d="M245.152,8026.108l-3.441-4.978a39.01,39.01,0,0,1-36.424,0l-3.441,4.978a2.037,2.037,0,0,1-2.865.514,2.1,2.1,0,0,1-.5-2.9l3.255-4.712a40.335,40.335,0,0,1-2.508-65.016l-2.331-3.373-9.339,6.628a2.039,2.039,0,0,1-1.181.378,1.917,1.917,0,0,1-.357-.034,2.043,2.043,0,0,1-1.328-.856,15.25,15.25,0,0,1,3.66-21.036,14.8,14.8,0,0,1,20.76,3.708,2.1,2.1,0,0,1-.506,2.9l-8.342,5.921,2.331,3.372a39.008,39.008,0,0,1,41.813,0l2.331-3.372-8.342-5.921a2.1,2.1,0,0,1-.506-2.9,14.8,14.8,0,0,1,20.76-3.708,15.252,15.252,0,0,1,3.66,21.038,2.051,2.051,0,0,1-1.328.856,2.1,2.1,0,0,1-.357.032,2.039,2.039,0,0,1-1.181-.378l-9.339-6.628-2.331,3.373a40.336,40.336,0,0,1-2.51,65.018l3.255,4.71a2.1,2.1,0,0,1-.506,2.9,2.035,2.035,0,0,1-2.863-.514Zm-57.069-40.524c0,19.791,15.888,35.891,35.417,35.891s35.417-16.1,35.417-35.891-15.888-35.891-35.417-35.891S188.083,7965.793,188.083,7985.584Zm54.517-45.379,17.359,12.319a11.044,11.044,0,0,0-3.668-13.413,10.7,10.7,0,0,0-13.691,1.094Zm-51.89-1.094a11.044,11.044,0,0,0-3.668,13.413l17.361-12.319a10.7,10.7,0,0,0-13.693-1.094Zm3.719,46.473a29.074,29.074,0,1,1,29.071,29.46A29.3,29.3,0,0,1,194.429,7985.584Zm31.128,23.62v2a25.082,25.082,0,0,0,14.361-6.042l-1.39-1.408a2.1,2.1,0,0,1,0-2.945,2.036,2.036,0,0,1,2.907,0l1.39,1.408a25.79,25.79,0,0,0,5.961-14.553h-1.978a2.085,2.085,0,0,1,0-4.17h1.978a25.77,25.77,0,0,0-5.961-14.551l-1.39,1.408a2.04,2.04,0,0,1-2.907,0,2.1,2.1,0,0,1,0-2.949l1.388-1.408a25.085,25.085,0,0,0-14.359-6.04v2a2.057,2.057,0,1,1-4.114,0v-2a25.1,25.1,0,0,0-14.361,6.04l1.39,1.408a2.1,2.1,0,0,1,0,2.949,2.04,2.04,0,0,1-2.907,0l-1.39-1.408a25.77,25.77,0,0,0-5.961,14.551h1.976a2.085,2.085,0,0,1,0,4.17h-1.976a25.79,25.79,0,0,0,5.961,14.553l1.39-1.408a2.036,2.036,0,0,1,2.907,0,2.1,2.1,0,0,1,0,2.945l-1.388,1.408a25.077,25.077,0,0,0,14.359,6.042v-2a2.057,2.057,0,1,1,4.114,0Zm-6.978-23.62a5.027,5.027,0,0,1,.306-1.73l-7.937-8.042a2.1,2.1,0,0,1,0-2.947,2.036,2.036,0,0,1,2.907,0l7.937,8.042a4.861,4.861,0,0,1,3.417,0l3.86-3.912a2.038,2.038,0,0,1,2.909,0,2.1,2.1,0,0,1,0,2.945l-3.86,3.914a5.026,5.026,0,0,1,.3,1.73,4.922,4.922,0,1,1-9.843,0Zm3.7,0a1.221,1.221,0,1,0,1.221-1.239A1.231,1.231,0,0,0,222.279,7985.584Z" transform="translate(-182 -7932.971)"/>
</svg>
