<svg xmlns="http://www.w3.org/2000/svg" width="107" height="103" viewBox="0 0 107 103">
  <metadata><?xpacket begin="﻿" id="W5M0MpCehiHzreSzNTczkc9d"?>
<x:xmpmeta xmlns:x="adobe:ns:meta/" x:xmptk="Adobe XMP Core 5.6-c142 79.160924, 2017/07/13-01:06:39        ">
   <rdf:RDF xmlns:rdf="http://www.w3.org/1999/02/22-rdf-syntax-ns#">
      <rdf:Description rdf:about=""/>
   </rdf:RDF>
</x:xmpmeta>
                                                                                                    
                                                                                                    
                                                                                                    
                                                                                                    
                                                                                                    
                                                                                                    
                                                                                                    
                                                                                                    
                                                                                                    
                                                                                                    
                                                                                                    
                                                                                                    
                                                                                                    
                                                                                                    
                                                                                                    
                                                                                                    
                                                                                                    
                                                                                                    
                                                                                                    
                                                                                                    
                           
<?xpacket end="w"?></metadata>
<defs>
    <style>
      .cls-1 {
        fill: #fe0000;
        fill-rule: evenodd;
      }
    </style>
  </defs>
  <path class="cls-1" d="M602.206,1365.13H555.9v-2.72a2.4,2.4,0,1,0-4.794,0v2.72H504.794a4.821,4.821,0,0,0-4.794,4.84v4.48a4.819,4.819,0,0,0,4.794,4.83h0.651v54.3a4.82,4.82,0,0,0,4.794,4.83H551.1v7.09l-17.762,13.13a2.433,2.433,0,0,0-.515,3.38,2.38,2.38,0,0,0,3.35.52L551.1,1451.5v9.08a2.4,2.4,0,1,0,4.794,0v-9.08l14.927,11.03a2.347,2.347,0,0,0,1.416.47,2.376,2.376,0,0,0,1.934-.99,2.42,2.42,0,0,0-.515-3.37L555.9,1445.5v-7.09h40.864a4.814,4.814,0,0,0,4.794-4.83v-54.3h0.651a4.82,4.82,0,0,0,4.794-4.83v-4.48A4.821,4.821,0,0,0,602.206,1365.13Zm-5.445,68.45H510.239v-54.3h86.522v54.3h0Zm5.445-59.13H504.794v-4.48h97.412v4.48h0Zm-48.752,11.83a2.163,2.163,0,0,0-2.157,2.17v16.67H534.755a2.171,2.171,0,0,0-2.157,2.18A20.858,20.858,0,1,0,553.454,1386.28Zm0,37.69a16.613,16.613,0,0,1-16.4-14.5h16.4a2.163,2.163,0,0,0,2.158-2.17v-16.53A16.68,16.68,0,0,1,553.454,1423.97Zm-7.3-39.94a15.862,15.862,0,0,0-15.786,15.91,2.162,2.162,0,0,0,2.157,2.17h13.629a2.162,2.162,0,0,0,2.157-2.17V1386.2A2.162,2.162,0,0,0,546.153,1384.03ZM544,1397.77h-9.112a11.559,11.559,0,0,1,9.112-9.19v9.19Z" transform="translate(-500 -1360)"/>
</svg>
