<svg xmlns="http://www.w3.org/2000/svg" viewBox="0 0 73 73">
  <defs>
    <style>
      .cls-1 {
        fill: #fd0101;
      }

      .cls-2 {
        fill: #fefefe;
      }

      .cls-3 {
        fill: #fef8f8;
      }
    </style>
  </defs>
  <g id="money" transform="translate(0)">
    <path id="Path_2" data-name="Path 2" class="cls-1" d="M73,36.6A36.5,36.5,0,1,1,36.5,0,36.64,36.64,0,0,1,73,36.6Z"/>
    <path id="Path_3" data-name="Path 3" class="cls-2" d="M4.9,36.4A31.6,31.6,0,1,1,36.5,68.1,31.435,31.435,0,0,1,4.9,36.4Z"/>
    <g id="Group_12" data-name="Group 12">
      <path id="Path_4" data-name="Path 4" class="cls-1" d="M41.4,35.3c-1.5-.7-2.6-1.2-2.5-3.1.1-3.6,0-7.1,0-10.7,1.9-.1,2.4,1.1,3.2,1.8,1.2,1.2,2.6,1.6,3.9.2,1.2-1.3.4-2.5-.5-3.5a9.251,9.251,0,0,0-3-2.6c-2.3-1.1-4.3-2.2-3.8-5.4a2,2,0,0,0-2.2-2.2A2.266,2.266,0,0,0,34,12.3c0,2.1-.2,3.6-2.6,4.6-4.3,1.8-6.6,5.4-6.6,10.2a10.928,10.928,0,0,0,6.7,10.7c1.5.7,2.6,1.2,2.5,3.1-.1,3.6,0,7.1,0,10.7-1.9.1-2.4-1.1-3.2-1.8-1.2-1.2-2.6-1.6-3.9-.2-1.2,1.3-.4,2.5.5,3.5a9.251,9.251,0,0,0,3,2.6c2.4,1.1,4.3,2.2,3.8,5.4a2,2,0,0,0,2.2,2.2,2.312,2.312,0,0,0,2.5-2.5c0-2.1.2-3.6,2.6-4.6,4.3-1.8,6.6-5.4,6.6-10.2A10.928,10.928,0,0,0,41.4,35.3Zm-7.7-2.1c-5.4-4-5.4-8.1,0-12.1Zm5.5,18.4V39.9C44.8,43.5,44.7,48.4,39.2,51.6Z"/>
      <path id="Path_5" data-name="Path 5" class="cls-3" d="M39.2,40V51.7C44.7,48.4,44.8,43.5,39.2,40Z"/>
      <path id="Path_6" data-name="Path 6" class="cls-3" d="M33.7,33.2V21.1C28.4,25.1,28.3,29.2,33.7,33.2Z"/>
    </g>
  </g>
</svg>
