<svg xmlns="http://www.w3.org/2000/svg" width="104" height="104" viewBox="0 0 104 104">
  <metadata><?xpacket begin="﻿" id="W5M0MpCehiHzreSzNTczkc9d"?>
<x:xmpmeta xmlns:x="adobe:ns:meta/" x:xmptk="Adobe XMP Core 5.6-c142 79.160924, 2017/07/13-01:06:39        ">
   <rdf:RDF xmlns:rdf="http://www.w3.org/1999/02/22-rdf-syntax-ns#">
      <rdf:Description rdf:about=""/>
   </rdf:RDF>
</x:xmpmeta>
                                                                                                    
                                                                                                    
                                                                                                    
                                                                                                    
                                                                                                    
                                                                                                    
                                                                                                    
                                                                                                    
                                                                                                    
                                                                                                    
                                                                                                    
                                                                                                    
                                                                                                    
                                                                                                    
                                                                                                    
                                                                                                    
                                                                                                    
                                                                                                    
                                                                                                    
                                                                                                    
                           
<?xpacket end="w"?></metadata>
<defs>
    <style>
      .cls-1 {
        fill: #fe0000;
        fill-rule: evenodd;
      }
    </style>
  </defs>
  <path id="Forma_1" data-name="Forma 1" class="cls-1" d="M263.5,1397.7a31.517,31.517,0,0,0-2.137-2.5,27.8,27.8,0,0,0-15.321-8.43,2.031,2.031,0,1,0-.7,4,23.759,23.759,0,0,1,13.082,7.23,27.714,27.714,0,0,1,1.859,2.18,2.024,2.024,0,0,0,1.611.79A2.03,2.03,0,0,0,263.5,1397.7Zm3.3,5.28a0.964,0.964,0,0,0-.057-0.12,2.031,2.031,0,1,0-1.787,3,1.978,1.978,0,0,0,.848-0.19A2.029,2.029,0,0,0,266.8,1402.98Zm8.919,14.69c-0.833-1.75-2.212-4.64-2.237-5.6,2.376-5.85,1.509-12.33-2.447-18.26-6.084-9.11-18.554-15.73-29.651-15.73a36.382,36.382,0,0,0-10.839,1.64h-1q-0.384-1.065-.87-2.1l5.792-5.79a2.028,2.028,0,0,0,0-2.87l-8.661-8.66a2.02,2.02,0,0,0-2.873,0l-5.791,5.79q-1.029-.48-2.1-0.87v-8.19A2.031,2.031,0,0,0,213,1355H200.756a2.032,2.032,0,0,0-2.032,2.03v8.19q-1.068.39-2.1,0.87l-5.792-5.79a2.018,2.018,0,0,0-2.872,0l-8.661,8.66a2.029,2.029,0,0,0,0,2.87l5.792,5.79q-0.484,1.035-.871,2.1h-8.19a2.031,2.031,0,0,0-2.031,2.03V1394a2.031,2.031,0,0,0,2.031,2.03h8.19a22.591,22.591,0,0,0,.87,2.1l-5.791,5.79a2.039,2.039,0,0,0,0,2.88l8.66,8.66a2.038,2.038,0,0,0,2.873,0l5.792-5.79c0.685,0.32,1.387.61,2.1,0.87v8.19a2.031,2.031,0,0,0,2.031,2.03h4.713a36.363,36.363,0,0,0,12.006,21.28c0.064,0.2.252,1.14-.555,3.94-0.628,2.19-1.593,4.62-2.444,6.76-0.57,1.44-1.062,2.67-1.359,3.61a2.032,2.032,0,0,0,1.936,2.65h29c0.953,0,2.261-.43,3.085-2.46a19.94,19.94,0,0,0,.841-3.08c0.241-1.09.807-3.67,1.369-3.98a1.057,1.057,0,0,1,.113.01,1.664,1.664,0,0,0,.315.03c3.037,0,5.518.13,7.706,0.25,6.421,0.36,10.3.58,13.7-4.32,1.729-2.49,1.534-6.12,1.326-9.97a36.251,36.251,0,0,1-.021-5.73,17.318,17.318,0,0,1,1.8-1.34c1.914-1.31,3.723-2.56,3.723-4.44C278,1422.53,277.132,1420.64,275.716,1417.67Zm-72.929-.97v-7.64a2.024,2.024,0,0,0-1.468-1.95,19.742,19.742,0,0,1-4.1-1.7,2.028,2.028,0,0,0-2.419.34l-5.4,5.4-5.788-5.79,5.4-5.4a2.034,2.034,0,0,0,.342-2.42,20.051,20.051,0,0,1-1.7-4.1,2.032,2.032,0,0,0-1.951-1.47h-7.635v-8.19H185.7a2.022,2.022,0,0,0,1.951-1.46,19.849,19.849,0,0,1,1.7-4.11,2.033,2.033,0,0,0-.341-2.42l-5.4-5.4,5.788-5.78,5.4,5.4a2.028,2.028,0,0,0,2.419.34,19.787,19.787,0,0,1,4.1-1.7,2.045,2.045,0,0,0,1.468-1.96v-7.63h8.186v7.63a2.044,2.044,0,0,0,1.468,1.96,19.756,19.756,0,0,1,4.1,1.7,2.028,2.028,0,0,0,2.419-.34l5.4-5.4,5.788,5.78-5.4,5.4a2.034,2.034,0,0,0-.342,2.42,19.629,19.629,0,0,1,1.7,4.11,2.024,2.024,0,0,0,1.952,1.46H235.7v8.19h-7.635a2.033,2.033,0,0,0-1.952,1.47,19.939,19.939,0,0,1-1.7,4.1,2.034,2.034,0,0,0,.342,2.42l5.4,5.4-5.788,5.79-5.4-5.4a2.028,2.028,0,0,0-2.419-.34,19.787,19.787,0,0,1-4.1,1.7,2.024,2.024,0,0,0-1.468,1.95v7.64h-8.186Zm69.19,8.36c-1.748,1.2-3.258,2.24-3.481,3.81a36.137,36.137,0,0,0-.054,6.83c0.154,2.85.328,6.09-.606,7.43-2.021,2.91-3.769,2.94-10.134,2.59-2.1-.12-4.7-0.26-7.794-0.27a4.338,4.338,0,0,0-4.534,2.69,18.775,18.775,0,0,0-1.368,4.45,21.171,21.171,0,0,1-.6,2.34H217.976c0.089-.22.182-0.45,0.276-0.69,2.925-7.37,4.778-12.77,1.958-15.21a32.313,32.313,0,0,1-10.612-18.27H213a2.031,2.031,0,0,0,2.031-2.03v-8.19q1.069-.39,2.1-0.87l5.792,5.79a2.038,2.038,0,0,0,2.873,0l8.661-8.66a2.04,2.04,0,0,0,0-2.88l-5.793-5.79a22.6,22.6,0,0,0,.871-2.1h8.19a2.032,2.032,0,0,0,2.032-2.03v-11.82c0.538-.02,1.079-0.04,1.62-0.04,9.679,0,20.974,5.99,26.272,13.93,2.271,3.4,4.465,8.69,2.017,14.58-0.8,1.92.385,4.58,2.379,8.77a36.741,36.741,0,0,1,1.827,4.22A18.255,18.255,0,0,1,271.977,1425.06Zm-65.1-51.12h-0.071a2.03,2.03,0,1,0,0,4.06h0.071A2.03,2.03,0,1,0,206.88,1373.94Zm-3.5,2.37a2.033,2.033,0,0,0-2.726-.9,13.932,13.932,0,0,0-2.751,23.12,1.979,1.979,0,0,0,1.308.48,2.029,2.029,0,0,0,1.311-3.58,9.876,9.876,0,0,1,1.95-16.39A2.035,2.035,0,0,0,203.378,1376.31Zm3.5,3.73a7.84,7.84,0,1,0,7.842,7.84A7.845,7.845,0,0,0,206.88,1380.04Zm0,11.62a3.78,3.78,0,1,1,3.779-3.78A3.787,3.787,0,0,1,206.88,1391.66Z" transform="translate(-174 -1355)"/>
</svg>
