<svg xmlns="http://www.w3.org/2000/svg" width="95" height="83" viewBox="0 0 95 83">
  <metadata><?xpacket begin="﻿" id="W5M0MpCehiHzreSzNTczkc9d"?>
<x:xmpmeta xmlns:x="adobe:ns:meta/" x:xmptk="Adobe XMP Core 5.6-c142 79.160924, 2017/07/13-01:06:39        ">
   <rdf:RDF xmlns:rdf="http://www.w3.org/1999/02/22-rdf-syntax-ns#">
      <rdf:Description rdf:about=""/>
   </rdf:RDF>
</x:xmpmeta>
                                                                                                    
                                                                                                    
                                                                                                    
                                                                                                    
                                                                                                    
                                                                                                    
                                                                                                    
                                                                                                    
                                                                                                    
                                                                                                    
                                                                                                    
                                                                                                    
                                                                                                    
                                                                                                    
                                                                                                    
                                                                                                    
                                                                                                    
                                                                                                    
                                                                                                    
                                                                                                    
                           
<?xpacket end="w"?></metadata>
<defs>
    <style>
      .cls-1 {
        fill: #fe0000;
        fill-rule: evenodd;
      }
    </style>
  </defs>
  <path class="cls-1" d="M590.441,1648.52a2.538,2.538,0,0,0-5.063.36c0.063,0.86.094,1.74,0.094,2.62a36.614,36.614,0,1,1-14.689-29.17,2.558,2.558,0,0,0,3.554-.5,2.507,2.507,0,0,0-.5-3.53,41.444,41.444,0,1,0,16.715,33.2C590.548,1650.5,590.512,1649.5,590.441,1648.52Zm8.661-32.82a9.951,9.951,0,0,0-14,0l-36.573,36.33-12.964-12.88a9.952,9.952,0,0,0-14,0,9.8,9.8,0,0,0,0,13.91l22.329,22.18a6.591,6.591,0,0,0,9.28,0l45.935-45.63A9.8,9.8,0,0,0,599.1,1615.7Zm-3.589,10.34-45.936,45.64a1.5,1.5,0,0,1-2.1,0l-22.328-22.18a4.81,4.81,0,0,1,6.824-6.78l13.337,13.25a4.569,4.569,0,0,0,6.435-.01l36.944-36.7a4.853,4.853,0,0,1,6.825,0A4.778,4.778,0,0,1,595.513,1626.04Z" transform="translate(-507 -1610)"/>
</svg>
