<svg xmlns="http://www.w3.org/2000/svg" viewBox="0 0 86.999 88.001">
  <defs>
    <style>
      .cls-1 {
        fill: #fe0000;
      }
    </style>
  </defs>
  <path id="what-inside" class="cls-1" d="M216.447,7306a4.241,4.241,0,0,1-4.215-4.257v-13.387a26.96,26.96,0,0,0-5.2-15.508,37.691,37.691,0,0,1-6.966-21.143c0-15.4,11.856-27.925,26.431-27.925s26.431,12.527,26.431,27.925a37.705,37.705,0,0,1-6.966,21.143,26.965,26.965,0,0,0-5.2,15.508v13.387a4.241,4.241,0,0,1-4.215,4.257Zm0-4.257h20.112l0-9.828H216.445v2.786H226.5a2.129,2.129,0,0,1,0,4.257H216.445Zm19.142-50.06a2.1,2.1,0,0,1,1.779.986,2.148,2.148,0,0,1,.13,2.046l-4.056,8.751-1.588,24.192h4.71a31.355,31.355,0,0,1,5.97-17.281,33.809,33.809,0,0,0,6.183-18.673c0-13.051-9.967-23.667-22.215-23.667s-22.215,10.616-22.215,23.667a33.783,33.783,0,0,0,6.183,18.671,31.374,31.374,0,0,1,5.97,17.281h4.71l-1.59-24.19-4.056-8.751a2.153,2.153,0,0,1,.132-2.046,2.1,2.1,0,0,1,1.777-.986Zm-12.043,10.341a2.178,2.178,0,0,1,.194.761l1.634,24.874h2.255l1.634-24.874a2.1,2.1,0,0,1,.194-.761l2.818-6.083H220.726Zm33.6,20.624-5.5-5.552a2.144,2.144,0,0,1,0-3.011,2.09,2.09,0,0,1,2.98,0l5.5,5.55a2.146,2.146,0,0,1,0,3.013,2.094,2.094,0,0,1-2.981,0Zm-64.263,0a2.144,2.144,0,0,1,0-3.011l5.517-5.572a2.093,2.093,0,0,1,2.98,0,2.146,2.146,0,0,1,0,3.013l-5.517,5.57a2.091,2.091,0,0,1-2.98,0Zm67.442-31.834a2.119,2.119,0,0,1-2.12-2.119v-.021a2.12,2.12,0,0,1,2.12-2.121h7.56a2.12,2.12,0,0,1,2.12,2.121v.021a2.119,2.119,0,0,1-2.12,2.119Zm-75.2,0a2.119,2.119,0,0,1-2.12-2.119v-.021a2.12,2.12,0,0,1,2.12-2.121h7.56a2.121,2.121,0,0,1,2.12,2.121v.021a2.12,2.12,0,0,1-2.12,2.119Zm62.8-23.759a2.144,2.144,0,0,1,0-3.011l5.365-5.42a2.1,2.1,0,0,1,2.981,0,2.145,2.145,0,0,1,0,3.011l-5.365,5.42a2.1,2.1,0,0,1-2.98,0Zm-45.819,0-5.363-5.417a2.144,2.144,0,0,1,0-3.011,2.1,2.1,0,0,1,2.981,0l5.363,5.417a2.145,2.145,0,0,1,0,3.011,2.088,2.088,0,0,1-2.98,0Z" transform="translate(-183.001 -7217.997)"/>
</svg>
